<?xml version="1.0" encoding="UTF-8" standalone="no"?>
<svg
   xmlns:dc="http://purl.org/dc/elements/1.1/"
   xmlns:cc="http://creativecommons.org/ns#"
   xmlns:rdf="http://www.w3.org/1999/02/22-rdf-syntax-ns#"
   xmlns:svg="http://www.w3.org/2000/svg"
   xmlns="http://www.w3.org/2000/svg"
   xmlns:xlink="http://www.w3.org/1999/xlink"
   xmlns:sodipodi="http://sodipodi.sourceforge.net/DTD/sodipodi-0.dtd"
   xmlns:inkscape="http://www.inkscape.org/namespaces/inkscape"
   id="Capa_1"
   enable-background="new 0 0 510 510"
   height="512"
   viewBox="0 0 510 510"
   width="512"
   version="1.1"
   sodipodi:docname="ic_dumbbell.svg"
   inkscape:version="0.92.3 (2405546, 2018-03-11)">
  <metadata
     id="metadata933">
    <rdf:RDF>
      <cc:Work
         rdf:about="">
        <dc:format>image/svg+xml</dc:format>
        <dc:type
           rdf:resource="http://purl.org/dc/dcmitype/StillImage" />
        <dc:title></dc:title>
      </cc:Work>
    </rdf:RDF>
  </metadata>
  <defs
     id="defs931" />
  <sodipodi:namedview
     pagecolor="#ffffff"
     bordercolor="#666666"
     borderopacity="1"
     objecttolerance="10"
     gridtolerance="10"
     guidetolerance="10"
     inkscape:pageopacity="0"
     inkscape:pageshadow="2"
     inkscape:window-width="1920"
     inkscape:window-height="1017"
     id="namedview929"
     showgrid="false"
     inkscape:zoom="0.84375"
     inkscape:cx="130.08425"
     inkscape:cy="343.20928"
     inkscape:window-x="-8"
     inkscape:window-y="32"
     inkscape:window-maximized="1"
     inkscape:current-layer="Capa_1" />
  <linearGradient
     id="SVGID_1_"
     gradientTransform="matrix(.707 -.707 .707 .707 -105.625 255)"
     gradientUnits="userSpaceOnUse"
     x1="145.225"
     x2="365.844"
     y1="255"
     y2="255">
    <stop
       offset="0"
       stop-color="#f8f6f7"
       id="stop875" />
    <stop
       offset=".1788"
       stop-color="#f8f6f7"
       id="stop877" />
    <stop
       offset="1"
       stop-color="#e7e6f5"
       id="stop879" />
  </linearGradient>
  <linearGradient
     id="SVGID_2_"
     gradientTransform="matrix(.707 -.707 .707 .707 -105.625 255)"
     gradientUnits="userSpaceOnUse"
     x1="127"
     x2="179.039"
     y1="255"
     y2="255">
    <stop
       offset="0"
       stop-color="#f8f6f7"
       id="stop882" />
    <stop
       offset="1"
       stop-color="#d1ceeb"
       id="stop884" />
  </linearGradient>
  <linearGradient
     id="lg1">
    <stop
       offset="0"
       stop-color="#a79ba7"
       id="stop887" />
    <stop
       offset=".7487"
       stop-color="#7a6d79"
       id="stop889" />
    <stop
       offset="1"
       stop-color="#685e68"
       id="stop891" />
  </linearGradient>
  <linearGradient
     id="SVGID_3_"
     gradientTransform="matrix(0.707,-0.707,0.707,0.707,-261.444,-121.181)"
     gradientUnits="userSpaceOnUse"
     x1="-174.914"
     x2="-104.008"
     xlink:href="#lg1"
     y1="631.181"
     y2="631.181" />
  <linearGradient
     id="SVGID_4_"
     gradientTransform="matrix(.707 -.707 .707 .707 -105.625 255)"
     gradientUnits="userSpaceOnUse"
     x1="-42"
     x2="42.054"
     xlink:href="#lg1"
     y1="255"
     y2="255" />
  <linearGradient
     id="SVGID_5_"
     gradientTransform="matrix(0.707,-0.707,0.707,0.707,-261.444,-121.181)"
     gradientUnits="userSpaceOnUse"
     x1="-123.921"
     x2="18.933"
     xlink:href="#lg1"
     y1="631.181"
     y2="631.181" />
  <linearGradient
     id="SVGID_6_"
     gradientTransform="matrix(.707 -.707 .707 .707 -105.625 255)"
     gradientUnits="userSpaceOnUse"
     x1="-61.35"
     x2="158.687"
     xlink:href="#lg1"
     y1="255"
     y2="255" />
  <linearGradient
     id="SVGID_7_"
     gradientTransform="matrix(0.70977255,-0.70977255,0.70977255,0.70977255,-262.46927,-121.65622)"
     gradientUnits="userSpaceOnUse"
     x1="304.96"
     x2="376.544"
     xlink:href="#lg1"
     y1="631.181"
     y2="631.181" />
  <linearGradient
     id="SVGID_8_"
     gradientTransform="matrix(.707 -.707 .707 .707 -105.625 255)"
     gradientUnits="userSpaceOnUse"
     x1="301.035"
     x2="508.464"
     xlink:href="#lg1"
     y1="255"
     y2="255" />
  <linearGradient
     id="SVGID_9_"
     gradientTransform="matrix(0.70977255,-0.70977255,0.70977255,0.70977255,-333.52383,-50.600659)"
     gradientUnits="userSpaceOnUse"
     x1="279.523"
     x2="422.377"
     xlink:href="#lg1"
     y1="631.181"
     y2="631.181" />
  <linearGradient
     id="SVGID_10_"
     gradientTransform="matrix(.707 -.707 .707 .707 -105.625 255)"
     gradientUnits="userSpaceOnUse"
     x1="242"
     x2="462.036"
     xlink:href="#lg1"
     y1="255"
     y2="255" />
  <g
     id="g926">
    <path
       style="fill:#d1ceeb;fill-opacity:1;stroke-width:1"
       d="m 328.46969,153.74668 c -10.70608,-0.51336 -18.98077,6.8397 -25.71881,14.21315 -47.27523,47.30927 -94.6194,94.55131 -141.8515,141.90263 -12.1669,12.54902 -8.04745,35.63845 7.71045,43.21118 11.79068,6.54679 27.15192,2.5193 35.3992,-7.79339 48.35527,-48.3893 96.77948,-96.71136 145.09159,-145.14271 12.16714,-12.54932 8.04702,-35.63829 -7.71042,-43.2118 -3.96417,-2.08834 -8.44096,-3.18304 -12.92051,-3.17906 z"
       id="path902"
       inkscape:connector-curvature="0" />
    <g
       id="g914">
      <path
         style="fill:#a79ba7;stroke-width:1;fill-opacity:1"
         d="m 42.740593,330.09224 c -12.890347,12.97609 -25.957375,25.78412 -38.7350538,38.8674 -6.8945137,7.94402 -4.25837525,20.33765 3.7445941,26.41882 36.9366017,36.84978 73.7038927,73.87762 110.7464067,110.61601 7.9443,6.89481 20.33706,4.25778 26.41924,-3.74418 11.66503,-11.66258 23.32784,-23.3274 34.99198,-34.99088 C 134.18537,421.53702 88.462981,375.81463 42.740593,330.09224 Z"
         id="path906"
         inkscape:connector-curvature="0" />
      <path
         style="fill:#685e68;stroke-width:1;fill-opacity:1"
         d="m 94.916839,221.29235 c -16.959147,-0.58423 -26.667483,14.71093 -37.79028,24.90051 -14.969291,15.45635 -31.010958,29.96818 -45.209179,46.10404 -9.6722387,13.78314 -4.8139604,33.08566 7.933888,43.06896 53.734183,53.58274 107.174172,107.47491 161.092772,160.86368 13.60406,11.79086 35.03162,7.65504 45.58706,-6.08259 18.47511,-18.71398 37.45009,-36.9744 55.61829,-55.96681 10.93495,-13.28828 7.39765,-34.15023 -5.93741,-44.48157 -53.92274,-53.77034 -107.54825,-107.85347 -161.6573,-161.42773 -5.48176,-4.50373 -12.5458,-6.99771 -19.637841,-6.97849 z"
         id="path910"
         inkscape:connector-curvature="0" />
    </g>
    <g
       id="g924">
      <path
         style="fill:#a79ba7;fill-opacity:1;stroke-width:1"
         d="m 380.23156,0 c -10.43008,-0.1492104 -16.11192,9.494402 -23.06284,15.66606 -9.02501,9.025332 -18.05095,18.049722 -27.07648,27.074533 45.72239,45.722388 91.44478,91.444777 137.16717,137.167167 12.88937,-12.97704 25.95553,-25.78597 38.73506,-38.8674 6.89451,-7.94402 4.25837,-20.33765 -3.74461,-26.41883 C 465.31327,77.771744 428.54594,40.743928 391.50346,4.005499 388.35665,1.4211098 384.30158,-0.01146056 380.23156,0 Z"
         id="path916"
         inkscape:connector-curvature="0" />
      <path
         style="fill:#685e68;fill-opacity:1;stroke-width:1"
         d="M 309.41746,6.7917252 C 291.8586,6.3953661 282.10968,22.352244 270.50093,32.819338 255.90453,47.897143 240.24362,62.037346 226.418,77.794417 c -9.67203,13.783703 -4.81442,33.087013 7.93385,43.070843 53.73421,53.58338 107.17416,107.47624 161.09283,160.86561 13.60444,11.79048 35.03342,7.65585 45.58872,-6.08285 18.35997,-18.51274 37.03044,-36.73018 55.19773,-55.4261 11.31303,-13.20345 8.15262,-34.62835 -5.51854,-45.02397 C 436.79045,121.42664 383.16256,67.345838 329.05596,13.768533 323.57342,9.2660141 316.50818,6.7716593 309.41746,6.7917252 Z"
         id="path920"
         inkscape:connector-curvature="0" />
    </g>
  </g>
</svg>
