<?xml version="1.0" encoding="UTF-8" standalone="no"?>
<svg
   xmlns:dc="http://purl.org/dc/elements/1.1/"
   xmlns:cc="http://creativecommons.org/ns#"
   xmlns:rdf="http://www.w3.org/1999/02/22-rdf-syntax-ns#"
   xmlns:svg="http://www.w3.org/2000/svg"
   xmlns="http://www.w3.org/2000/svg"
   xmlns:xlink="http://www.w3.org/1999/xlink"
   xmlns:sodipodi="http://sodipodi.sourceforge.net/DTD/sodipodi-0.dtd"
   xmlns:inkscape="http://www.inkscape.org/namespaces/inkscape"
   id="Capa_1"
   enable-background="new 0 0 510 510"
   height="512"
   viewBox="0 0 510 510"
   width="512"
   version="1.1"
   sodipodi:docname="008-chest press.svg"
   inkscape:version="0.92.3 (2405546, 2018-03-11)">
  <metadata
     id="metadata1151">
    <rdf:RDF>
      <cc:Work
         rdf:about="">
        <dc:format>image/svg+xml</dc:format>
        <dc:type
           rdf:resource="http://purl.org/dc/dcmitype/StillImage" />
      </cc:Work>
    </rdf:RDF>
  </metadata>
  <defs
     id="defs1149" />
  <sodipodi:namedview
     pagecolor="#ffffff"
     bordercolor="#666666"
     borderopacity="1"
     objecttolerance="10"
     gridtolerance="10"
     guidetolerance="10"
     inkscape:pageopacity="0"
     inkscape:pageshadow="2"
     inkscape:window-width="1920"
     inkscape:window-height="1017"
     id="namedview1147"
     showgrid="false"
     inkscape:zoom="0.84375"
     inkscape:cx="46.788552"
     inkscape:cy="300.62074"
     inkscape:window-x="-8"
     inkscape:window-y="32"
     inkscape:window-maximized="1"
     inkscape:current-layer="g1144" />
  <linearGradient
     id="lg1">
    <stop
       offset="0"
       stop-color="#a79ba7"
       id="stop984" />
    <stop
       offset=".7487"
       stop-color="#7a6d79"
       id="stop986" />
    <stop
       offset="1"
       stop-color="#685e68"
       id="stop988" />
  </linearGradient>
  <linearGradient
     id="SVGID_1_"
     gradientUnits="userSpaceOnUse"
     x1="214"
     x2="308.34"
     xlink:href="#lg1"
     y1="206.937"
     y2="206.937" />
  <linearGradient
     id="SVGID_2_"
     gradientUnits="userSpaceOnUse"
     x1="186.667"
     x2="269.358"
     xlink:href="#lg1"
     y1="44.165"
     y2="44.165" />
  <linearGradient
     id="lg2">
    <stop
       offset="0"
       stop-color="#fff9df"
       id="stop993" />
    <stop
       offset=".593"
       stop-color="#ffe177"
       id="stop995" />
    <stop
       offset="1"
       stop-color="#feb137"
       id="stop997" />
  </linearGradient>
  <linearGradient
     id="SVGID_3_"
     gradientUnits="userSpaceOnUse"
     x1="193.836"
     x2="314.761"
     xlink:href="#lg2"
     y1="263.741"
     y2="263.741" />
  <linearGradient
     id="SVGID_4_"
     gradientUnits="userSpaceOnUse"
     x1="104"
     x2="343.41"
     xlink:href="#lg2"
     y1="263.741"
     y2="263.741" />
  <linearGradient
     id="lg3">
    <stop
       offset="0"
       stop-color="#f8f6f7"
       id="stop1002" />
    <stop
       offset=".1788"
       stop-color="#f8f6f7"
       id="stop1004" />
    <stop
       offset="1"
       stop-color="#e7e6f5"
       id="stop1006" />
  </linearGradient>
  <linearGradient
     id="SVGID_5_"
     gradientUnits="userSpaceOnUse"
     x1="132.401"
     x2="176.26"
     xlink:href="#lg3"
     y1="458.158"
     y2="458.158" />
  <linearGradient
     id="lg4">
    <stop
       offset="0"
       stop-color="#f8f6f7"
       id="stop1010" />
    <stop
       offset="1"
       stop-color="#d1ceeb"
       id="stop1012" />
  </linearGradient>
  <linearGradient
     id="SVGID_6_"
     gradientUnits="userSpaceOnUse"
     x1="85.805"
     x2="174.352"
     xlink:href="#lg4"
     y1="425.165"
     y2="425.165" />
  <linearGradient
     id="SVGID_7_"
     gradientUnits="userSpaceOnUse"
     x1="335.031"
     x2="378.89"
     xlink:href="#lg3"
     y1="458.158"
     y2="458.158" />
  <linearGradient
     id="SVGID_8_"
     gradientUnits="userSpaceOnUse"
     x1="288.436"
     x2="376.982"
     xlink:href="#lg4"
     y1="425.165"
     y2="425.165" />
  <linearGradient
     id="SVGID_9_"
     gradientUnits="userSpaceOnUse"
     x1="98"
     x2="419.801"
     xlink:href="#lg2"
     y1="366.574"
     y2="366.574" />
  <linearGradient
     id="SVGID_10_"
     gradientUnits="userSpaceOnUse"
     x1="228"
     x2="364.18"
     xlink:href="#lg2"
     y1="366.574"
     y2="366.574" />
  <linearGradient
     id="SVGID_11_"
     gradientUnits="userSpaceOnUse"
     x1="87.331"
     x2="431.001"
     xlink:href="#lg3"
     y1="401.835"
     y2="401.835" />
  <linearGradient
     id="SVGID_12_"
     gradientUnits="userSpaceOnUse"
     x1="338.5"
     x2="388.023"
     xlink:href="#lg4"
     y1="401.835"
     y2="401.835" />
  <linearGradient
     id="SVGID_13_"
     gradientUnits="userSpaceOnUse"
     x1="-7.483"
     x2="566.244"
     xlink:href="#lg1"
     y1="489.87"
     y2="489.87" />
  <linearGradient
     id="SVGID_14_"
     gradientUnits="userSpaceOnUse"
     x1="333.869"
     x2="459.841"
     xlink:href="#lg1"
     y1="489.87"
     y2="489.87" />
  <linearGradient
     id="SVGID_15_"
     gradientUnits="userSpaceOnUse"
     x1="48"
     x2="457.207"
     xlink:href="#lg3"
     y1="168.828"
     y2="168.828" />
  <linearGradient
     id="SVGID_16_"
     gradientUnits="userSpaceOnUse"
     x1="250.497"
     x2="302.502"
     xlink:href="#lg4"
     y1="105.844"
     y2="105.844" />
  <linearGradient
     id="SVGID_17_"
     gradientUnits="userSpaceOnUse"
     x1="130.197"
     x2="182.201"
     xlink:href="#lg4"
     y1="105.844"
     y2="105.844" />
  <linearGradient
     id="SVGID_18_"
     gradientUnits="userSpaceOnUse"
     x1="21"
     x2="126.948"
     xlink:href="#lg4"
     y1="192.597"
     y2="192.597" />
  <linearGradient
     id="SVGID_19_"
     gradientUnits="userSpaceOnUse"
     x1="301"
     x2="444.032"
     xlink:href="#lg4"
     y1="168.828"
     y2="168.828" />
  <linearGradient
     id="SVGID_20_"
     gradientUnits="userSpaceOnUse"
     x1="26.015"
     x2="119.278"
     xlink:href="#lg2"
     y1="231.312"
     y2="231.312" />
  <linearGradient
     id="SVGID_21_"
     gradientUnits="userSpaceOnUse"
     x1="-13.985"
     x2="116.663"
     xlink:href="#lg2"
     y1="231.312"
     y2="231.312" />
  <linearGradient
     id="SVGID_22_"
     gradientUnits="userSpaceOnUse"
     x1="395.015"
     x2="488.278"
     xlink:href="#lg2"
     y1="231.312"
     y2="231.312" />
  <linearGradient
     id="SVGID_23_"
     gradientUnits="userSpaceOnUse"
     x1="355.015"
     x2="485.663"
     xlink:href="#lg2"
     y1="231.312"
     y2="231.312" />
  <linearGradient
     id="SVGID_24_"
     gradientUnits="userSpaceOnUse"
     x1="174.617"
     x2="218.475"
     xlink:href="#lg3"
     y1="82.008"
     y2="82.008" />
  <linearGradient
     id="SVGID_25_"
     gradientUnits="userSpaceOnUse"
     x1="128.021"
     x2="216.567"
     xlink:href="#lg4"
     y1="49.015"
     y2="49.015" />
  <linearGradient
     id="SVGID_26_"
     gradientUnits="userSpaceOnUse"
     x1="292.816"
     x2="336.675"
     xlink:href="#lg3"
     y1="82.008"
     y2="82.008" />
  <linearGradient
     id="SVGID_27_"
     gradientUnits="userSpaceOnUse"
     x1="246.22"
     x2="334.767"
     xlink:href="#lg4"
     y1="49.015"
     y2="49.015" />
  <linearGradient
     id="SVGID_28_"
     gradientUnits="userSpaceOnUse"
     x1="158.453"
     x2="369.482"
     xlink:href="#lg1"
     y1="20.13"
     y2="20.13" />
  <linearGradient
     id="SVGID_29_"
     gradientUnits="userSpaceOnUse"
     x1="172.663"
     x2="298.635"
     xlink:href="#lg1"
     y1="20.13"
     y2="20.13" />
  <linearGradient
     id="SVGID_30_"
     gradientUnits="userSpaceOnUse"
     x1="261.8"
     x2="327.255"
     xlink:href="#lg2"
     y1="463.48"
     y2="463.48" />
  <linearGradient
     id="SVGID_31_"
     gradientUnits="userSpaceOnUse"
     x1="236.466"
     x2="321.575"
     xlink:href="#lg2"
     y1="463.483"
     y2="463.483" />
  <linearGradient
     id="SVGID_32_"
     gradientUnits="userSpaceOnUse"
     x1="183.133"
     x2="248.589"
     xlink:href="#lg2"
     y1="463.48"
     y2="463.48" />
  <linearGradient
     id="SVGID_33_"
     gradientUnits="userSpaceOnUse"
     x1="157.8"
     x2="242.909"
     xlink:href="#lg2"
     y1="463.483"
     y2="463.483" />
  <linearGradient
     id="SVGID_34_"
     gradientUnits="userSpaceOnUse"
     x1="218.5"
     x2="273.502"
     xlink:href="#lg4"
     y1="436.299"
     y2="436.299" />
  <g
     id="g1144">
    <path
       style="fill:#a79ba7;fill-opacity:1;stroke-width:1"
       d="m 255,20.299301 c -12.02469,-0.354829 -21.70842,11.432878 -20.13004,23.135503 0.0692,110.688186 -0.13849,221.383356 0.10393,332.067166 0.83006,16.28966 23.33653,24.29004 34.26001,12.17565 8.93909,-9.04937 5.02969,-22.39974 5.89614,-33.75675 -0.0468,-105.04002 0.0935,-210.08477 -0.07,-315.121851 C 274.43938,28.596975 265.20163,20.123672 255,20.299301 Z"
       id="path1044"
       inkscape:connector-curvature="0" />
    <g
       id="g1052"
       style="fill:#f5cf2a;fill-opacity:1">
      <path
         style="fill:#edc300;fill-opacity:1;stroke-width:1"
         d="m 218.07902,168.26797 c -22.39865,15.16338 -26.16347,31.78156 -24.63061,56.91319 0.0276,37.25317 -0.0552,74.50772 0.0415,111.76001 0.4172,17.40724 17.03356,31.83815 34.28823,30.28085 20.03637,-0.10389 40.086,0.21171 60.11376,-0.16467 16.96134,-1.30477 30.31018,-17.83068 28.65965,-34.64866 -0.0815,-38.18306 0.16417,-76.37291 -0.12501,-114.55166 -1.26485,-28.6314 -2.8334,-38.37389 -29.68786,-51.7511 -16.08507,-6.64063 -45.78684,-9.95319 -68.65966,2.16204 z"
         id="path1048"
         inkscape:connector-curvature="0"
         sodipodi:nodetypes="ccccccccc" />
    </g>
    <g
       id="g1076">
      <g
         id="g1066">
        <g
           id="g1058">
          <path
             style="fill:#c9c9c9;fill-opacity:1;stroke-width:1.00392163"
             d="M 136.71875 407.91016 L 136.71875 407.91211 L 136.71875 445.75391 L 136.71875 512 L 171.85547 512 L 171.85547 445.75391 L 171.85547 407.91211 L 171.85547 407.91016 L 136.71875 407.91016 z M 340.14453 407.91016 L 340.14453 407.91211 L 340.14453 445.75391 L 340.14453 512 L 375.28125 512 L 375.28125 445.75391 L 375.28125 407.91211 L 375.28125 407.91016 L 340.14453 407.91016 z "
             id="path1054"
             transform="scale(0.99609375)" />
        </g>
        <g
           id="g1064" />
      </g>
      <path
         style="fill:#f5cf2a;fill-opacity:1;stroke-width:1"
         d="m 157.32445,339.57264 c -22.49557,-0.64516 -42.20424,20.33706 -40.46436,42.71642 0,3.76157 0,7.52313 0,11.2847 92.09328,0 184.18654,0 276.27982,0 0.091,-12.50201 0.90882,-26.03233 -7.18589,-36.56205 -8.41095,-12.72666 -24.04851,-18.6686 -38.90863,-17.43907 -63.24031,0 -126.48063,0 -189.72094,0 z"
         id="path1068"
         inkscape:connector-curvature="0" />
      <path
         style="fill:#c9c9c9;fill-opacity:1;stroke-width:1.00392163"
         d="M 116.19922 387.61133 C 111.6123 387.61133 107.89453 391.3291 107.89453 395.91602 L 107.89453 410.9043 C 107.89453 415.49121 111.6123 419.21094 116.19922 419.21094 L 355.62305 419.21094 L 395.80078 419.21094 C 400.3877 419.21094 404.10547 415.49121 404.10547 410.9043 L 404.10547 395.91602 C 404.10547 391.3291 400.3877 387.61133 395.80078 387.61133 L 355.62305 387.61133 L 116.19922 387.61133 z "
         id="path1072"
         transform="scale(0.99609375)" />
    </g>
    <g
       id="g1082">
      <path
         d="m489.87 510h-469.74c-11.117 0-20.13-9.013-20.13-20.13 0-11.118 9.013-20.13 20.13-20.13h469.74c11.118 0 20.13 9.013 20.13 20.13 0 11.117-9.013 20.13-20.13 20.13z"
         id="path1078"
         style="fill:#a79ba7;fill-opacity:1"
         fill="url(#SVGID_13_)" />
      <path
         d="m489.87 469.739h-40.469c11.118 0 20.13 9.013 20.13 20.13 0 11.118-9.013 20.13-20.13 20.13h40.469c11.118 0 20.13-9.013 20.13-20.13 0-11.117-9.013-20.13-20.13-20.13z"
         id="path1080"
         style="fill:none"
         fill="url(#SVGID_14_)" />
    </g>
    <path
       style="fill:#c9c9c9;fill-opacity:1;stroke-width:1"
       d="M 178.4,29.997596 V 88.34301 C 152.00045,88.666857 123.90188,85.513374 100.24315,99.957878 68.422902,116.94358 49.508516,153.28086 52.016716,188.9889 c 0.0026,20.10619 -0.0052,40.22276 0.0039,60.32247 h 34.999466 c 0.337961,-25.25059 -0.70163,-50.56518 0.568085,-75.77316 3.566494,-30.02882 33.176823,-53.22658 63.228763,-50.19574 9.65304,0.003 19.31051,0.002 28.96633,0.002 -0.27747,11.70075 34.97443,11.2848 35.00344,-0.002 27.73376,-7.4e-4 55.46542,6.1e-4 83.19709,0.002 0.13993,12.11813 35.39181,10.86741 35.00344,-0.002 22.47667,0.71911 47.36926,-3.82147 66.35948,11.44443 17.86971,12.53207 25.42998,34.94211 23.63712,56.04962 v 58.4768 c 11.66584,-0.001 23.33687,0.003 34.99947,-0.002 -0.40415,-26.51511 0.86622,-53.1026 -0.74903,-79.56687 -4.91586,-45.55427 -47.57771,-82.85912 -93.43699,-81.40149 H 331.60001 V 29.997546 H 296.60054 V 88.34296 H 213.39948 V 29.997546 h -34.99947 z"
       id="path1084"
       inkscape:connector-curvature="0"
       sodipodi:nodetypes="cccccccccccccccccccccccccc" />
    <g
       id="g1106"
       style="fill:#f5cf2a;fill-opacity:1">
      <g
         id="g1098"
         style="fill:#f5cf2a;fill-opacity:1">
        <path
           style="fill:#f5cf2a;fill-opacity:1;stroke-width:1"
           d="m 61.205291,159.31274 c -12.608264,-0.31477 -23.875227,11.19565 -23.190307,23.82222 0.0168,32.69253 -0.03364,65.38583 0.02529,98.07786 0.239911,12.38552 11.84395,22.8375 24.112885,22.09967 7.435183,-0.19241 14.927988,0.45432 22.314425,-0.4708 11.238589,-2.0641 19.518976,-13.28744 18.517226,-24.61524 -0.0207,-32.3052 0.0414,-64.61148 -0.0311,-96.91599 -0.3143,-12.43495 -12.039026,-22.92831 -24.424945,-21.99772 -5.774481,0 -11.548962,0 -17.323443,0 z"
           id="path1094"
           inkscape:connector-curvature="0" />
      </g>
      <g
         id="g1104"
         style="fill:#f5cf2a;fill-opacity:1">
        <path
           style="fill:#f5cf2a;fill-opacity:1;stroke-width:1"
           d="m 430.20744,159.31274 c -12.60876,-0.31511 -23.87732,11.19464 -23.19225,23.82222 0.0168,32.69253 -0.0336,65.38583 0.0253,98.07786 0.24085,12.38443 11.83992,22.83712 24.11482,22.09967 7.43539,-0.17888 14.92533,0.43239 22.31248,-0.4708 11.27062,-2.04671 19.49916,-13.2994 18.51724,-24.61524 -0.0207,-32.3052 0.0414,-64.61148 -0.0311,-96.91599 -0.32228,-12.42122 -12.03356,-22.93482 -24.423,-21.99772 -5.77449,0 -11.54896,0 -17.32345,0 z"
           id="path1100"
           inkscape:connector-curvature="0" />
      </g>
    </g>
    <g
       id="g1120">
      <g
         id="g1112">
        <path
           d="m178.4 30h35v38.03h-35z"
           id="path1110"
           style="fill:#c9c9c9;fill-opacity:1"
           fill="url(#SVGID_25_)" />
      </g>
      <g
         id="g1118">
        <path
           d="m296.6 30h35v38.03h-35z"
           id="path1116"
           style="fill:#c9c9c9;fill-opacity:1"
           fill="url(#SVGID_27_)" />
      </g>
    </g>
    <g
       id="g1126">
      <path
         style="fill:#a79ba7;fill-opacity:1;stroke-width:1"
         d="m 288.19405,0 c -32.39845,0.00453949 -65.48831,6.4849913e-4 -98.15268,0.0019455 -7.3765,0.00380132 -15.60127,-0.80817772 -21.50998,4.5957755 -9.6776,7.444217 -9.67683,23.620614 -4.1e-4,31.065475 6.84926,6.127925 16.32264,4.316942 24.70011,4.59689 45.4896,-0.01716 90.98006,0.03433 136.46912,-0.02578 12.51117,-0.207262 22.19188,-13.85301 18.29631,-25.734112 C 345.4721,5.0170759 335.55306,-1.0289618 325.97819,0 313.38349,0 300.78877,0 288.19405,0 Z"
         id="path1122"
         inkscape:connector-curvature="0" />
    </g>
    <g
       id="g1140">
      <g
         id="g1132">
        <path
           style="fill:#f5cf2a;fill-opacity:1;stroke-width:1"
           d="m 278.76228,445.4718 c 10.82571,1.81519 21.91571,1.53876 32.73102,-0.18285 8.52458,-0.81074 17.0102,5.27278 19.01042,13.5943 2.14539,7.75028 -1.57791,16.59218 -8.63654,20.45552 -4.27175,2.55173 -9.47383,2.83947 -14.25137,1.82209 -10.08284,-1.46198 -20.36698,-1.09413 -30.40719,0.51603 -8.90666,0.88299 -17.71317,-5.80719 -19.2845,-14.61135 -1.81099,-8.23815 2.96724,-17.23904 10.77918,-20.39312 3.1487,-1.3486 6.68326,-1.76031 10.05898,-1.20062 z"
           id="path1128"
           inkscape:connector-curvature="0" />
      </g>
      <g
         id="g1138">
        <path
           style="fill:#f5cf2a;fill-opacity:1;stroke-width:1"
           d="m 197.00672,445.22862 c -8.84351,-0.11431 -17.00314,7.10804 -17.95052,15.904 -1.27694,8.49702 4.35484,17.29297 12.57557,19.74764 5.43812,1.95626 11.07222,-0.15938 16.5983,-0.35983 8.09277,-0.65049 16.23726,-0.14689 24.24498,1.12203 8.50365,0.98101 17.08987,-4.93483 19.26401,-13.20159 2.2692,-7.61279 -1.14674,-16.42232 -7.98109,-20.48626 -4.24534,-2.72184 -9.54894,-3.26589 -14.40831,-2.19464 -10.21616,1.48518 -20.6341,1.16879 -30.80871,-0.47582 -0.51033,-0.04 -1.02234,-0.0587 -1.53423,-0.0555 z"
           id="path1134"
           inkscape:connector-curvature="0" />
      </g>
    </g>
    <path
       d="m272.5 469v-65.536c0-9.592-7.776-17.368-17.368-17.368h-.265c-9.592 0-17.368 7.776-17.368 17.368v65.536c0 9.665 7.835 17.5 17.5 17.5 9.666 0 17.501-7.835 17.501-17.5z"
       id="path1142"
       style="fill:#c9c9c9;fill-opacity:1"
       fill="url(#SVGID_34_)" />
  </g>
</svg>
